<?xml version="1.0" standalone="no"?>
<!DOCTYPE svg PUBLIC "-//W3C//DTD SVG 20010904//EN"
 "http://www.w3.org/TR/2001/REC-SVG-20010904/DTD/svg10.dtd">
<svg version="1.0" xmlns="http://www.w3.org/2000/svg"
 width="500.000000pt" height="499.000000pt" viewBox="0 0 500.000000 499.000000"
 preserveAspectRatio="xMidYMid meet">

<g transform="translate(0.000000,499.000000) scale(0.100000,-0.100000)"
fill="#000000" stroke="none">
<path d="M1970 4977 c0 -9 24 -36 53 -61 60 -51 87 -111 111 -251 8 -44 17
-92 21 -106 l6 -26 -144 5 c-144 5 -232 -3 -387 -35 -41 -8 -79 -18 -85 -23
-5 -5 -27 -11 -48 -15 -43 -8 -54 -20 -37 -40 8 -9 10 -74 8 -214 l-3 -201 37
0 c63 0 68 -6 69 -74 l1 -61 8 53 c4 29 10 55 11 57 8 7 235 8 256 1 16 -5 26
-22 38 -63 9 -30 14 -57 12 -60 -3 -2 -20 3 -37 12 -19 10 -29 12 -25 5 5 -8
3 -11 -6 -8 -8 3 -13 10 -12 16 3 12 -79 34 -88 24 -12 -12 10 -52 28 -52 15
0 16 2 3 10 -13 8 -13 10 2 10 9 0 26 -13 38 -30 18 -26 19 -30 5 -30 -9 0
-31 10 -48 23 -31 22 -39 25 -84 35 -18 3 -23 0 -23 -17 0 -17 -6 -21 -29 -21
-20 0 -31 6 -34 18 -3 9 -5 -8 -5 -38 0 -36 2 -47 7 -31 l7 24 18 -27 c10 -16
16 -37 13 -47 -3 -10 -1 -19 4 -19 5 0 9 -11 9 -24 0 -14 13 -38 31 -56 36
-35 34 -50 -2 -22 -13 11 -30 17 -36 15 -7 -3 -14 1 -14 9 -1 7 -5 -5 -8 -27
-6 -35 -8 -29 -18 55 l-12 95 5 -101 4 -101 -64 -74 c-35 -41 -97 -106 -138
-146 -72 -70 -75 -73 -57 -89 11 -10 19 -25 19 -35 0 -9 3 -25 6 -34 6 -13 9
-14 16 -3 7 9 8 7 3 -7 -4 -14 6 -30 42 -65 27 -25 56 -56 64 -69 l16 -25 33
24 c37 27 73 32 111 18 21 -7 36 -5 68 12 40 20 101 36 169 44 19 2 40 13 48
25 11 16 20 18 37 12 12 -5 40 -14 62 -21 l40 -12 -1 -101 0 -102 -32 -3 c-19
-2 -38 -12 -45 -23 -6 -10 -17 -19 -24 -19 -7 0 -13 -4 -13 -10 0 -5 -6 -10
-13 -10 -9 0 -11 -28 -9 -117 4 -173 9 -187 11 -33 l1 135 82 -6 c46 -3 97 -3
115 1 18 4 34 5 37 2 4 -3 6 -150 6 -327 0 -241 -3 -325 -12 -338 -12 -15 -18
-15 -88 3 -41 11 -89 20 -106 20 l-32 0 3 168 c3 145 3 153 -4 62 -5 -58 -11
-135 -15 -172 -7 -65 -7 -67 16 -72 61 -12 162 -37 166 -40 13 -13 -43 -45
-117 -68 -36 -10 -46 -19 -52 -41 -4 -16 -16 -35 -26 -42 -15 -11 -19 -35 -25
-172 -3 -87 -7 -216 -7 -288 -1 -106 -6 -145 -26 -212 -13 -45 -31 -122 -40
-170 -29 -159 -108 -366 -157 -412 -142 -131 -172 -164 -218 -240 -57 -96 -70
-134 -70 -210 l0 -53 110 4 c100 3 110 2 110 -14 0 -10 5 -18 10 -18 7 0 8 17
4 48 -6 45 -4 49 20 60 15 7 31 12 36 12 15 0 7 -159 -8 -165 -18 -7 -32 3
-32 22 0 9 -3 14 -6 10 -12 -11 8 -47 26 -47 34 0 191 39 345 86 255 78 303
94 332 109 15 8 33 15 39 15 6 0 39 26 72 58 l62 57 1 60 c2 59 6 172 8 188 1
4 8 7 16 7 22 0 19 76 -5 178 -16 66 -20 118 -20 252 l0 169 -57 40 c-32 22
-79 50 -105 62 -27 12 -48 25 -48 29 0 4 47 39 105 79 58 40 113 84 122 97 14
22 14 43 4 192 -6 92 -11 178 -11 192 0 14 -4 31 -9 38 -9 15 -73 19 -108 7
-30 -10 -30 7 0 54 41 66 47 99 47 265 l0 158 38 -8 c65 -15 229 -3 217 16 -5
8 54 54 62 47 2 -3 0 -14 -6 -25 -8 -15 -8 -21 1 -24 9 -3 7 -47 -7 -179 -11
-103 -15 -183 -10 -195 6 -13 12 17 21 96 7 63 17 144 23 180 6 36 16 130 21
210 6 79 13 146 14 148 2 2 14 -3 26 -10 18 -10 24 -10 27 0 6 14 33 16 33 2
0 -6 28 -10 63 -10 34 0 68 -4 76 -9 11 -7 12 -71 10 -350 -3 -215 -8 -340
-14 -338 -5 2 -12 14 -15 28 -6 25 -15 26 -165 18 -16 -1 -45 3 -62 9 -50 16
-39 6 22 -22 l55 -25 0 -53 c0 -56 -11 -85 -28 -74 -5 3 -23 1 -40 -5 l-30
-10 -6 -122 c-21 -430 -19 -467 24 -477 35 -8 35 -26 1 -58 l-30 -27 -10 -185
c-12 -206 -23 -285 -52 -369 -35 -103 -47 -181 -38 -250 6 -39 5 -87 -1 -125
-5 -33 -10 -80 -10 -103 0 -49 10 -57 88 -68 58 -8 57 -7 41 -87 l-11 -55 -47
5 c-25 2 -50 8 -54 12 -5 4 -9 37 -9 72 0 68 -11 56 -21 -24 -6 -46 -5 -48 26
-65 24 -13 62 -17 157 -19 69 -1 112 0 97 3 -20 3 -27 9 -23 21 3 9 10 39 17
66 l12 49 74 -7 c41 -3 79 -8 83 -11 5 -3 3 -20 -4 -38 -26 -64 -28 -87 -7
-87 18 0 35 15 56 50 5 10 41 59 78 109 65 87 70 91 107 91 29 0 45 7 70 33
63 63 71 90 89 280 6 65 15 105 25 116 14 16 14 26 -3 112 -11 52 -32 215 -48
362 l-28 268 -60 -5 c-40 -4 -52 -2 -35 3 24 9 25 9 2 10 -12 1 -25 8 -28 16
-4 9 -19 15 -36 15 -26 0 -29 2 -18 15 7 9 19 14 27 11 9 -4 13 3 14 22 0 20
12 36 50 65 39 29 48 42 45 60 -3 12 -7 51 -10 87 -18 247 -31 363 -41 365
-97 26 -110 33 -113 58 -2 16 5 34 17 46 12 12 16 21 11 21 -6 0 -10 64 -10
173 0 173 6 250 20 242 10 -6 3 171 -11 243 -6 34 -9 68 -6 76 3 7 31 27 62
45 31 18 64 44 72 60 14 24 28 30 105 45 78 16 92 22 113 50 35 46 75 159 75
212 0 28 4 43 10 39 6 -3 10 0 10 9 0 8 -4 16 -9 18 -10 3 -15 93 -13 221 2
68 5 86 15 81 9 -6 9 -4 2 7 -6 8 -8 56 -4 119 3 58 6 85 8 60 3 -43 3 -44 11
-15 13 49 17 166 5 162 -5 -2 -8 -21 -7 -42 3 -24 0 -35 -7 -31 -10 6 -8 82 2
92 8 9 36 -8 39 -24 2 -10 7 60 11 153 10 232 12 240 55 265 56 33 30 45 -106
47 -64 0 -107 -1 -94 -4 12 -2 22 -9 22 -15 0 -7 -62 -9 -203 -4 -187 7 -237
4 -237 -13 0 -3 73 -6 162 -6 180 0 298 -7 292 -16 -9 -16 -309 -25 -452 -14
-46 4 -128 -7 -140 -19 -3 -4 -9 -28 -12 -53 l-5 -46 -88 -2 c-49 -2 -101 0
-115 4 -25 7 -27 12 -28 65 -1 36 -6 61 -15 66 -10 7 -7 19 14 58 41 75 36
117 -27 253 -22 49 -25 65 -19 121 4 46 2 67 -7 73 -18 11 -31 -8 -37 -53 -4
-33 -10 -42 -32 -47 -14 -4 -38 -18 -53 -33 -16 -14 -28 -22 -28 -18 0 5 -7 3
-15 -4 -11 -9 -33 -11 -73 -7 -35 4 -84 1 -126 -8 -38 -8 -74 -11 -80 -8 -6 4
-31 22 -55 40 -44 34 -101 67 -101 59 0 -2 22 -18 49 -36 51 -32 80 -60 64
-60 -12 0 -150 103 -215 160 -32 28 -48 37 -48 27z m196 -204 c18 -17 28 -33
22 -35 -14 -5 -3 -38 11 -38 6 0 8 6 6 13 -4 8 19 23 62 42 63 28 77 30 183
30 145 0 166 -6 187 -51 15 -31 15 -36 3 -45 -8 -5 -32 -8 -52 -7 -41 2 -68
-15 -68 -44 0 -15 5 -18 22 -13 18 6 20 4 13 -11 -15 -38 -17 -54 -6 -54 6 0
17 15 25 34 18 43 67 71 95 56 27 -14 36 -13 22 4 -9 11 -8 23 5 55 9 22 20
39 24 36 4 -3 15 -33 25 -68 l17 -64 -33 -60 c-69 -122 -173 -227 -311 -311
-101 -62 -105 -62 -130 -3 -11 28 -24 51 -27 51 -4 0 -7 8 -8 18 0 9 -13 49
-28 87 -65 169 -89 279 -63 287 9 3 4 23 -15 67 -15 34 -27 68 -26 74 0 7 3 5
6 -3 4 -8 21 -29 39 -47z m606 -215 c-8 -8 -9 -4 -5 13 4 13 8 18 11 10 2 -7
-1 -18 -6 -23z m-38 -53 c-9 -14 -18 -25 -21 -25 -5 0 5 18 20 38 17 22 18 13
1 -13z m-699 5 c-16 -5 -50 -14 -75 -21 -25 -6 -50 -17 -55 -24 -12 -14 -141
-12 -275 3 l-65 8 125 21 c124 20 412 31 345 13z m-300 -74 c53 -11 60 -15 61
-36 12 -242 13 -367 5 -379 -13 -20 -164 -21 -248 -2 l-63 14 0 183 c0 121 4
184 10 184 6 0 1 10 -10 22 -19 21 -20 23 -3 29 23 9 170 0 248 -15z m1011
-23 c-11 -11 -19 6 -11 24 8 17 8 17 12 0 3 -10 2 -21 -1 -24z m-98 -22 c-18
-22 -35 -38 -37 -35 -4 4 59 74 67 74 2 0 -12 -18 -30 -39z m-819 -75 c1 -80
-5 -68 -12 24 -4 46 -3 67 3 55 5 -11 9 -47 9 -79z m1472 88 l97 -7 -5 -216
c-3 -119 -8 -219 -12 -223 -5 -6 -288 -13 -337 -8 -20 2 -21 5 -12 34 6 17 12
43 15 57 5 25 -10 225 -23 322 l-7 47 94 0 c52 0 137 -3 190 -6z m144 -66 c-3
-35 -8 -120 -11 -190 -4 -84 -11 -133 -20 -145 -12 -16 -13 -6 -14 77 0 52 3
146 7 208 5 99 8 112 24 112 16 0 18 -7 14 -62z m-771 -44 c14 -26 26 -48 26
-49 0 -2 -19 -10 -42 -20 -26 -10 -80 -18 -138 -21 -52 -2 -86 -1 -75 2 11 3
31 16 45 28 14 12 43 33 65 47 22 14 51 33 65 42 14 9 26 16 27 16 1 1 13 -20
27 -45z m102 13 c8 3 14 1 14 -4 0 -5 -9 -9 -20 -10 -13 -1 -20 4 -19 15 0 10
3 12 5 5 3 -7 12 -9 20 -6z m-36 -27 c0 -5 -4 -10 -10 -10 -5 0 -10 5 -10 10
0 6 5 10 10 10 6 0 10 -4 10 -10z m270 -15 c0 -8 -3 -15 -7 -15 -7 0 -45 -34
-160 -142 -29 -27 -103 -40 -177 -32 -64 7 -59 21 11 30 39 5 151 62 173 89 7
8 22 16 34 16 17 1 18 2 3 6 -14 4 -16 8 -6 19 8 10 22 12 47 8 25 -5 33 -4
28 5 -4 6 -16 11 -26 11 -10 0 -22 5 -25 10 -4 6 15 10 49 10 43 0 56 -3 56
-15z m-780 -47 c0 -13 -7 -32 -15 -42 -21 -28 -19 -34 18 -42 32 -7 32 -7 8
-16 -14 -5 -65 -7 -115 -6 l-90 3 77 53 c42 29 79 57 82 62 12 19 35 10 35
-12z m1380 -290 c0 -105 -3 -188 -7 -184 -5 4 -8 92 -8 196 0 103 3 186 8 183
4 -2 7 -90 7 -195z m31 102 l-8 -65 -2 75 c-1 47 2 71 9 64 6 -6 6 -34 1 -74z
m-1276 40 c154 -5 312 -11 350 -12 l70 -3 7 -165 c8 -193 2 -290 -18 -290 -20
0 -26 16 -29 84 -3 74 -26 123 -60 132 -45 11 -171 -16 -277 -61 -11 -4 -18
-3 -18 3 0 14 62 51 113 68 l42 14 -46 -3 c-31 -3 -64 -16 -102 -41 -93 -59
-94 -41 -2 31 16 12 41 25 57 28 15 4 28 10 28 14 0 5 11 6 25 3 14 -2 25 -8
25 -12 0 -4 21 -11 46 -15 26 -3 54 -9 63 -12 11 -4 13 -3 6 5 -6 7 -31 16
-55 21 -25 5 -64 15 -87 21 -41 12 -43 11 -113 -36 -40 -26 -117 -86 -173
-133 -91 -76 -102 -83 -111 -66 -6 10 -21 30 -34 46 -15 19 -26 49 -31 91 l-8
63 -2 -52 c-1 -40 -5 -53 -16 -53 -8 0 -15 6 -15 14 0 8 -9 21 -21 29 l-21 15
21 7 c12 3 19 10 17 14 -5 8 13 67 27 89 5 7 6 52 2 99 l-8 86 34 -7 c19 -3
160 -11 314 -16z m1210 -275 c-4 -132 -3 -197 4 -190 5 6 12 24 14 40 6 39 -4
-109 -13 -200 l-7 -70 -4 110 c-3 99 -4 91 -9 -73 -3 -108 -9 -183 -15 -184
-5 -2 -22 20 -37 47 -27 50 -27 52 -29 260 -1 116 -2 262 -3 325 l-1 115 45
58 45 57 8 -47 c4 -27 5 -138 2 -248z m-115 205 c0 -5 -4 -10 -10 -10 -5 0
-10 5 -10 10 0 6 5 10 10 10 6 0 10 -4 10 -10z m-3 -36 c-3 -3 -12 -4 -19 -1
-8 3 -5 6 6 6 11 1 17 -2 13 -5z m-165 -266 c2 -117 2 -220 -1 -230 -5 -15
-12 -14 -66 9 -110 46 -163 72 -167 85 -3 7 0 58 6 113 9 85 11 94 17 60 5
-34 6 -30 8 27 0 37 -3 70 -9 73 -5 3 -9 18 -9 33 l1 27 9 -30 c8 -29 8 -28 6
8 l-3 37 102 0 102 0 4 -212z m159 67 c-8 -106 -14 -82 -11 40 1 55 7 81 15
73 2 -2 0 -53 -4 -113z m-1553 42 c6 -5 12 -15 12 -23 0 -12 -8 -11 -40 6 -22
11 -40 21 -40 23 0 6 57 1 68 -6z m1734 -182 c-7 -105 -9 -116 -10 -55 -2 83
11 263 16 215 1 -16 -2 -88 -6 -160z m-968 167 c8 -14 -40 -35 -62 -28 -12 4
-31 1 -44 -7 -13 -8 -44 -18 -69 -21 -25 -4 -69 -16 -97 -26 -72 -28 -65 -15
11 19 97 44 118 51 182 60 33 5 63 9 67 10 4 0 9 -3 12 -7z m-881 -75 c141
-60 282 -140 302 -171 7 -11 19 -59 25 -106 19 -139 49 -293 60 -304 20 -20 9
-28 -30 -22 -69 11 -196 55 -221 77 -13 11 -34 28 -47 38 -16 12 -25 30 -28
61 -3 24 -7 47 -10 51 -2 4 0 10 5 13 5 4 18 -5 29 -19 18 -23 22 -24 36 -9
19 19 19 22 4 82 -9 38 -13 43 -20 26 -6 -14 -7 -13 -3 8 13 68 -57 158 -123
158 -31 0 -42 6 -67 38 -16 20 -29 37 -28 37 2 0 -4 21 -12 48 -8 26 -10 47
-5 47 6 0 65 -24 133 -53z m915 11 c5 -13 6 -46 4 -75 -3 -47 -7 -53 -37 -67
-18 -9 -36 -23 -39 -32 -8 -21 -7 -182 1 -213 6 -23 7 -23 14 -5 7 18 8 17 8
-3 1 -27 21 -31 21 -5 0 14 2 15 10 2 8 -12 10 -12 10 -1 0 24 12 4 16 -26 1
-15 8 -29 13 -31 6 -2 11 -16 11 -32 0 -32 -20 -48 -95 -75 -27 -10 -54 -22
-60 -25 -22 -16 -180 -80 -211 -86 -38 -7 -95 9 -117 34 -8 9 -17 44 -20 77
l-6 60 13 -45 c17 -55 20 -26 5 35 -7 27 -16 42 -22 38 -7 -4 -8 0 -4 11 4 10
2 26 -3 36 -14 26 -28 139 -23 177 4 28 11 35 44 44 21 7 52 25 69 42 16 16
30 24 30 18 0 -7 5 -9 10 -6 6 4 8 10 5 15 -3 4 2 11 11 14 8 3 12 2 9 -4 -3
-6 1 -7 9 -4 9 3 14 10 11 14 -3 5 19 24 50 42 30 18 55 36 55 40 0 5 6 8 13
8 6 0 35 11 62 24 67 33 123 34 133 4z m697 -90 c3 -29 6 -66 6 -83 -1 -116
-1 -117 -19 -113 -21 4 -28 52 -24 166 3 61 7 82 17 82 9 0 16 -18 20 -52z
m52 -70 c-2 -13 -4 -3 -4 22 0 25 2 35 4 23 2 -13 2 -33 0 -45z m-697 -2 c0
-8 5 -16 11 -18 8 -3 6 -10 -5 -20 -11 -12 -16 -34 -16 -74 0 -78 -10 -63 -12
18 -1 46 -6 65 -15 65 -7 0 -13 -9 -13 -19 0 -11 -4 -16 -10 -13 -19 12 -10
44 18 58 36 19 42 20 42 3z m-980 -28 c11 -18 19 -42 18 -53 -2 -11 9 -33 24
-49 30 -32 43 -67 23 -60 -16 7 -76 90 -69 97 3 3 -8 13 -25 23 -16 10 -31 25
-34 33 -12 50 34 56 63 9z m-94 -54 c9 -31 25 -65 35 -75 10 -10 19 -23 19
-29 0 -5 7 -10 15 -10 9 0 12 -6 9 -15 -4 -8 -1 -22 6 -30 14 -17 -2 -38 -149
-187 -85 -87 -97 -96 -108 -81 -7 9 -13 23 -13 31 0 8 -23 41 -52 74 l-51 59
55 57 c119 124 207 232 202 247 -4 8 -1 15 5 15 6 0 18 -25 27 -56z m1221 22
c43 -19 144 -66 225 -105 81 -39 154 -71 163 -71 29 0 55 -19 48 -36 -3 -9 0
-20 7 -24 10 -6 8 -17 -8 -51 -12 -24 -26 -75 -31 -113 -8 -58 -15 -73 -38
-92 -15 -13 -36 -23 -45 -24 -16 0 -268 129 -328 169 -14 9 -42 25 -62 35 -20
10 -39 25 -42 33 -3 8 -10 11 -16 8 -14 -9 -13 4 10 76 10 35 22 101 26 147 4
45 8 82 10 82 1 0 38 -15 81 -34z m550 -28 c-3 -8 -6 -5 -6 6 -1 11 2 17 5 13
3 -3 4 -12 1 -19z m-760 -10 c-3 -8 -6 -5 -6 6 -1 11 2 17 5 13 3 -3 4 -12 1
-19z m-1255 -175 c-11 -16 -29 -36 -39 -46 -17 -15 -22 -16 -32 -3 -10 11 -8
18 10 35 14 13 25 17 29 11 4 -6 14 -2 25 10 26 29 30 25 7 -7z m854 -258 c14
-10 15 -14 5 -15 -11 0 -12 -3 -4 -11 11 -11 95 -8 183 6 19 3 53 5 75 5 48 0
187 -20 197 -29 4 -3 8 -36 10 -74 1 -38 7 -67 13 -67 5 0 -3 -11 -19 -23 -28
-23 -29 -26 -23 -86 11 -99 -30 -151 -145 -187 -54 -16 -59 -16 -105 1 -26 10
-57 26 -68 35 -11 10 -30 21 -42 25 -13 3 -23 10 -23 15 0 5 -13 30 -30 57
-33 53 -53 136 -77 316 -5 42 -4 47 14 47 10 0 28 -7 39 -15z m538 -77 c11
-43 6 -77 -13 -87 -26 -14 -31 -5 -31 56 0 45 3 53 19 53 11 0 21 -9 25 -22z
m-54 -172 c-5 -15 -10 -46 -11 -69 l-1 -42 -13 30 c-22 48 -19 94 8 104 28 11
30 9 17 -23z m-610 -748 c0 -30 -25 -15 -28 17 -3 25 -2 27 12 16 9 -8 16 -22
16 -33z m330 -58 c0 -5 -4 -10 -10 -10 -5 0 -10 5 -10 10 0 6 5 10 10 10 6 0
10 -4 10 -10z m-460 -70 l65 -17 6 -74 c3 -41 9 -158 14 -261 l7 -188 -46 0
c-61 0 -190 62 -182 88 2 9 7 94 11 187 3 94 8 199 12 233 5 59 7 63 27 57 11
-4 50 -15 86 -25z m830 8 c0 -5 5 -8 11 -8 5 0 8 4 4 9 -5 9 67 6 141 -5 l32
-5 6 -97 c3 -53 9 -180 11 -280 l6 -184 -123 7 c-68 4 -138 11 -157 17 l-34
11 7 241 c7 205 12 300 15 301 15 4 81 -2 81 -7z m-907 -564 c26 -14 84 -34
129 -45 46 -11 104 -26 131 -35 53 -18 53 -16 37 -136 -5 -40 -12 -97 -14
-127 -3 -29 -8 -68 -11 -85 -3 -17 -17 -123 -30 -236 -21 -180 -26 -207 -45
-222 -22 -18 -102 -34 -118 -24 -10 6 -27 66 -37 128 -5 31 -10 37 -38 43
-145 30 -245 59 -261 75 -19 19 -19 20 6 67 15 26 36 73 47 103 12 30 25 64
30 75 19 44 30 83 41 150 24 151 63 295 80 295 4 0 28 -12 53 -26z m1151 -99
c71 -2 130 -5 131 -7 2 -2 4 -59 6 -128 2 -69 7 -132 11 -142 8 -18 28 -300
29 -415 1 -104 -5 -111 -88 -106 -97 5 -475 43 -496 49 -9 3 -22 14 -27 25
-12 22 -7 45 45 209 34 106 55 279 55 451 0 36 3 69 8 73 4 5 50 5 102 2 52
-3 153 -8 224 -11z m-1444 -580 c0 -8 15 -22 33 -31 17 -9 33 -18 35 -19 2 -2
-20 -25 -49 -51 -29 -27 -65 -60 -79 -74 -14 -14 -47 -44 -73 -66 -45 -39 -87
-102 -87 -131 0 -8 14 -13 40 -13 23 0 52 -8 67 -17 23 -16 24 -17 7 -24 -11
-4 -49 -8 -87 -8 -62 -1 -68 1 -76 22 -29 77 78 285 194 378 65 52 75 57 75
34z m144 -131 l26 -56 -25 -20 c-14 -11 -23 -23 -20 -27 2 -5 -7 -13 -20 -19
-14 -7 -25 -16 -25 -20 0 -14 -73 -60 -131 -82 l-51 -20 8 42 c4 24 8 54 9 67
1 16 32 53 95 112 51 49 97 86 101 83 4 -2 19 -30 33 -60z m1633 -11 c-9 -134
-45 -234 -90 -249 -9 -3 -42 -2 -72 1 -54 7 -54 7 -39 30 8 13 26 26 39 29 31
8 49 35 75 111 17 50 77 154 89 155 1 0 1 -35 -2 -77z m-1582 34 c26 -26 32
-36 23 -45 -20 -20 -33 -14 -56 27 -12 21 -22 41 -22 45 0 15 24 3 55 -27z
m615 18 c0 -8 -4 -15 -10 -15 -5 0 -7 7 -4 15 4 8 8 15 10 15 2 0 4 -7 4 -15z
m0 -60 c0 -25 -4 -33 -14 -29 -11 4 -12 11 -3 35 15 37 17 37 17 -6z m853 -72
c-9 -27 -20 -54 -26 -61 -9 -11 -70 -42 -84 -42 -9 0 22 47 47 70 15 14 30 37
34 53 4 18 13 27 26 27 18 0 18 -2 3 -47z m-493 18 c41 -5 60 -9 43 -10 -29
-1 -33 -4 -33 -28 0 -16 -12 -79 -27 -141 l-26 -114 -56 7 c-78 10 -85 17 -77
87 3 32 9 85 12 117 6 58 8 60 38 64 29 4 28 4 -6 5 -26 1 -38 7 -38 17 0 11
10 13 48 9 26 -3 81 -9 122 -13z m-360 -10 c0 -6 -4 -13 -10 -16 -5 -3 -10 1
-10 9 0 9 5 16 10 16 6 0 10 -4 10 -9z m533 -8 c-18 -2 -48 -2 -65 0 -18 2 -4
4 32 4 36 0 50 -2 33 -4z m81 -18 c-5 -12 2 -15 32 -15 71 0 72 -7 21 -122
-25 -56 -47 -112 -49 -123 -2 -15 -11 -20 -31 -19 -15 1 -52 2 -83 2 l-57 2 6
38 c4 20 17 81 29 134 l23 98 45 0 c33 0 41 3 30 10 -12 8 -9 10 12 10 20 0
26 -4 22 -15z"/>
<path d="M2467 4467 c-18 -13 -60 -107 -52 -115 6 -7 40 23 76 70 28 35 29 37
11 47 -14 7 -24 7 -35 -2z m8 -35 c-15 -16 -16 -15 -4 12 7 15 15 23 17 16 3
-7 -3 -19 -13 -28z"/>
<path d="M1563 4403 c9 -2 25 -2 35 0 9 3 1 5 -18 5 -19 0 -27 -2 -17 -5z"/>
<path d="M1738 4393 c7 -3 16 -2 19 1 4 3 -2 6 -13 5 -11 0 -14 -3 -6 -6z"/>
<path d="M3041 3984 c0 -11 3 -14 6 -6 3 7 2 16 -1 19 -3 4 -6 -2 -5 -13z"/>
<path d="M3093 3625 c0 -33 2 -45 4 -27 2 18 2 45 0 60 -2 15 -4 0 -4 -33z"/>
<path d="M2409 3623 c-13 -16 -12 -17 4 -4 9 7 17 15 17 17 0 8 -8 3 -21 -13z"/>
<path d="M1741 3543 c7 -12 15 -20 18 -17 3 2 -3 12 -13 22 -17 16 -18 16 -5
-5z"/>
<path d="M3318 3237 c-3 -19 -2 -25 4 -19 6 6 8 18 6 28 -3 14 -5 12 -10 -9z"/>
<path d="M3245 830 c4 -80 11 -176 16 -215 6 -56 7 -47 3 45 -8 189 -16 305
-21 310 -3 3 -2 -60 2 -140z"/>
<path d="M3262 520 c0 -14 2 -19 5 -12 2 6 2 18 0 25 -3 6 -5 1 -5 -13z"/>
<path d="M2678 349 c-1 -34 0 -63 5 -66 4 -2 7 25 7 61 0 36 -2 66 -4 66 -2 0
-6 -27 -8 -61z"/>
<path d="M3712 3900 c0 -14 2 -19 5 -12 2 6 2 18 0 25 -3 6 -5 1 -5 -13z"/>
<path d="M3662 3690 c0 -14 2 -19 5 -12 2 6 2 18 0 25 -3 6 -5 1 -5 -13z"/>
<path d="M3703 3670 c0 -25 2 -35 4 -22 2 12 2 32 0 45 -2 12 -4 2 -4 -23z"/>
<path d="M1611 3674 c0 -11 3 -14 6 -6 3 7 2 16 -1 19 -3 4 -6 -2 -5 -13z"/>
<path d="M3692 3565 c0 -16 2 -22 5 -12 2 9 2 23 0 30 -3 6 -5 -1 -5 -18z"/>
<path d="M3656 3545 c4 -8 8 -15 10 -15 2 0 4 7 4 15 0 8 -4 15 -10 15 -5 0
-7 -7 -4 -15z"/>
<path d="M3682 3510 c0 -14 2 -19 5 -12 2 6 2 18 0 25 -3 6 -5 1 -5 -13z"/>
<path d="M3242 2580 c0 -19 2 -27 5 -17 2 9 2 25 0 35 -3 9 -5 1 -5 -18z"/>
</g>
</svg>
